<mxfile host="app.diagrams.net" modified="2022-03-10T17:16:26.232Z" agent="5.0 (Windows NT 10.0; Win64; x64) AppleWebKit/537.36 (KHTML, like Gecko) Chrome/99.0.4844.51 Safari/537.36" etag="3ELsYjLYVhMWtAit-kiL" version="17.1.0" type="github">
  <diagram id="Fzu1oIUinSx9-_KdtZh1" name="Page-1">
    <mxGraphModel dx="1422" dy="705" grid="1" gridSize="10" guides="1" tooltips="1" connect="1" arrows="1" fold="1" page="1" pageScale="1" pageWidth="827" pageHeight="1169" math="0" shadow="0">
      <root>
        <mxCell id="0" />
        <mxCell id="1" parent="0" />
        <mxCell id="06QrvVio-bMSasnatZh2-4" value="" style="edgeStyle=orthogonalEdgeStyle;rounded=0;orthogonalLoop=1;jettySize=auto;html=1;" edge="1" parent="1" source="06QrvVio-bMSasnatZh2-1" target="06QrvVio-bMSasnatZh2-3">
          <mxGeometry relative="1" as="geometry" />
        </mxCell>
        <mxCell id="06QrvVio-bMSasnatZh2-9" value="" style="edgeStyle=orthogonalEdgeStyle;rounded=0;orthogonalLoop=1;jettySize=auto;html=1;" edge="1" parent="1" source="06QrvVio-bMSasnatZh2-1" target="06QrvVio-bMSasnatZh2-8">
          <mxGeometry relative="1" as="geometry">
            <Array as="points">
              <mxPoint x="414" y="130" />
              <mxPoint x="290" y="130" />
            </Array>
          </mxGeometry>
        </mxCell>
        <mxCell id="06QrvVio-bMSasnatZh2-19" style="edgeStyle=orthogonalEdgeStyle;rounded=0;orthogonalLoop=1;jettySize=auto;html=1;entryX=0.539;entryY=0;entryDx=0;entryDy=0;entryPerimeter=0;" edge="1" parent="1" source="06QrvVio-bMSasnatZh2-1" target="06QrvVio-bMSasnatZh2-18">
          <mxGeometry relative="1" as="geometry">
            <Array as="points">
              <mxPoint x="414" y="130" />
              <mxPoint x="547" y="130" />
            </Array>
          </mxGeometry>
        </mxCell>
        <mxCell id="06QrvVio-bMSasnatZh2-1" value="Objet Recette" style="ellipse;whiteSpace=wrap;html=1;" vertex="1" parent="1">
          <mxGeometry x="354" y="40" width="120" height="80" as="geometry" />
        </mxCell>
        <mxCell id="06QrvVio-bMSasnatZh2-7" value="" style="edgeStyle=orthogonalEdgeStyle;rounded=0;orthogonalLoop=1;jettySize=auto;html=1;" edge="1" parent="1" source="06QrvVio-bMSasnatZh2-3" target="06QrvVio-bMSasnatZh2-6">
          <mxGeometry relative="1" as="geometry" />
        </mxCell>
        <mxCell id="06QrvVio-bMSasnatZh2-3" value="Affichage de la carte" style="whiteSpace=wrap;html=1;" vertex="1" parent="1">
          <mxGeometry x="60" y="150" width="120" height="60" as="geometry" />
        </mxCell>
        <mxCell id="06QrvVio-bMSasnatZh2-6" value="Intégre les carte dans le DOM" style="shape=parallelogram;perimeter=parallelogramPerimeter;whiteSpace=wrap;html=1;fixedSize=1;" vertex="1" parent="1">
          <mxGeometry x="20" y="240" width="200" height="60" as="geometry" />
        </mxCell>
        <mxCell id="06QrvVio-bMSasnatZh2-13" value="" style="edgeStyle=orthogonalEdgeStyle;rounded=0;orthogonalLoop=1;jettySize=auto;html=1;" edge="1" parent="1" source="06QrvVio-bMSasnatZh2-8" target="06QrvVio-bMSasnatZh2-12">
          <mxGeometry relative="1" as="geometry" />
        </mxCell>
        <mxCell id="06QrvVio-bMSasnatZh2-8" value="Possède l&#39;élement&lt;br&gt;(ingrédient/appareils/ustensil)" style="whiteSpace=wrap;html=1;" vertex="1" parent="1">
          <mxGeometry x="200" y="150" width="180" height="60" as="geometry" />
        </mxCell>
        <mxCell id="06QrvVio-bMSasnatZh2-17" value="" style="edgeStyle=orthogonalEdgeStyle;rounded=0;orthogonalLoop=1;jettySize=auto;html=1;" edge="1" parent="1" source="06QrvVio-bMSasnatZh2-12" target="06QrvVio-bMSasnatZh2-16">
          <mxGeometry relative="1" as="geometry" />
        </mxCell>
        <mxCell id="06QrvVio-bMSasnatZh2-12" value="&lt;span&gt;Vérifier si la recette possède l&#39;élément&lt;/span&gt;" style="rhombus;whiteSpace=wrap;html=1;" vertex="1" parent="1">
          <mxGeometry x="220" y="260" width="140" height="120" as="geometry" />
        </mxCell>
        <mxCell id="06QrvVio-bMSasnatZh2-16" value="Renvoie existe" style="whiteSpace=wrap;html=1;" vertex="1" parent="1">
          <mxGeometry x="230" y="490" width="120" height="60" as="geometry" />
        </mxCell>
        <mxCell id="06QrvVio-bMSasnatZh2-21" value="" style="edgeStyle=orthogonalEdgeStyle;rounded=0;orthogonalLoop=1;jettySize=auto;html=1;" edge="1" parent="1" source="06QrvVio-bMSasnatZh2-18" target="06QrvVio-bMSasnatZh2-20">
          <mxGeometry relative="1" as="geometry" />
        </mxCell>
        <mxCell id="06QrvVio-bMSasnatZh2-18" value="Récupération des termes" style="whiteSpace=wrap;html=1;" vertex="1" parent="1">
          <mxGeometry x="450" y="150" width="180" height="60" as="geometry" />
        </mxCell>
        <mxCell id="06QrvVio-bMSasnatZh2-22" style="edgeStyle=orthogonalEdgeStyle;rounded=0;orthogonalLoop=1;jettySize=auto;html=1;exitX=0.5;exitY=1;exitDx=0;exitDy=0;" edge="1" parent="1" source="06QrvVio-bMSasnatZh2-20">
          <mxGeometry relative="1" as="geometry">
            <mxPoint x="370" y="210" as="targetPoint" />
            <Array as="points">
              <mxPoint x="540" y="430" />
              <mxPoint x="370" y="430" />
              <mxPoint x="370" y="210" />
            </Array>
          </mxGeometry>
        </mxCell>
        <mxCell id="06QrvVio-bMSasnatZh2-20" value="intégration dans un tableau normalisé tous les mots clés (ingrédient /appareils/ustensiles/description)" style="shape=parallelogram;perimeter=parallelogramPerimeter;whiteSpace=wrap;html=1;fixedSize=1;" vertex="1" parent="1">
          <mxGeometry x="390" y="280" width="300" height="80" as="geometry" />
        </mxCell>
      </root>
    </mxGraphModel>
  </diagram>
</mxfile>
